<?xml version="1.0" encoding="utf-8"?><svg xmlns="http://www.w3.org/2000/svg" xmlns:xlink="http://www.w3.org/1999/xlink"><symbol viewBox="0 0 32 32" id="check"><path d="M26.664 6.27a.829.829 0 0 0-1.177 0L13.088 18.611a.826.826 0 0 1-1.178 0l-5.433-5.532a.825.825 0 0 0-1.177 0l-2.401 2.158a.83.83 0 0 0-.246.583c0 .215.087.44.247.603l5.478 5.749c.324.328.855.861 1.178 1.186l2.355 2.374a.834.834 0 0 0 1.178 0L29.019 9.83a.846.846 0 0 0 0-1.188l-2.356-2.373z"/></symbol><symbol viewBox="0 0 30 30" id="target"><defs><style>.bcls-1{fill:#e24619;fill-rule:evenodd}</style></defs><path class="bcls-1" d="M29.965 4.836a.627.627 0 0 0-.521-.415l-2.688-.3a.625.625 0 0 0-.881-.881l-.3-2.688a.626.626 0 0 0-1.064-.373l-4.059 4.06a13.8 13.8 0 1 0 5.3 5.3l4.06-4.06a.627.627 0 0 0 .153-.643zm-8.829.491l3.342-3.342.23 2.069a17.058 17.058 0 0 0-3.718 2.74zm3.021.514a50.283 50.283 0 0 1-3.28 3.909c-1.589 1.759-3.172 3.4-3.7 3.949H16.3v-.879a170.36 170.36 0 0 1 3.945-3.7 50.564 50.564 0 0 1 3.912-3.279zm-10.849 10.85a.624.624 0 0 0 .883 0l1.742-1.742h1.334a3.748 3.748 0 1 1-2.218-2.218v1.334l-1.741 1.742a.625.625 0 0 0 0 .884zm2.4-5.041a5 5 0 1 0 2.636 2.636c.49-.508 1.324-1.381 2.259-2.391a8.123 8.123 0 1 1-2.5-2.5 163.56 163.56 0 0 0-2.391 2.255zm10.538 4.6a12.488 12.488 0 1 1-6.372-10.9l-.264 2.662-.089.079-.471.427a9.372 9.372 0 1 0 2.428 2.428c.168-.185.338-.371.506-.56l2.662-.263a12.426 12.426 0 0 1 1.604 6.126zm-1.579-7.387l-1.469.146a41.706 41.706 0 0 0 1.783-2.184 9.779 9.779 0 0 0 .851-1.295 3.49 3.49 0 0 0 .112-.238l2.065.23z"/></symbol></svg>