<?xml version="1.0" encoding="utf-8"?><svg xmlns="http://www.w3.org/2000/svg" xmlns:xlink="http://www.w3.org/1999/xlink"><symbol viewBox="0 0 30.7 35.9" id="01" xmlns="http://www.w3.org/2000/svg"><path class="ast0" d="M.5 11.3l27.3-.1c-1.1 7.3-1.9 16.5-.1 23.5L.5 34.6c1.4-8.1 1.7-15.1 0-23.3zm1.4-3.8V5.9S.8 6.2.3 7.1c-.5.9-1.4 2.7-1.4 2.7C.5 20 .6 25.9-1.2 35.9l30.5.1c-1.5-9.8-1.5-16.2.1-25.9.1-.1-2-3.7-2-3.7s-.6-.5-1.1-.6h-.7l2.5 4.1H.4c0 .1 1.2-2.3 1.5-2.4z"/><path class="ast1" d="M7.3 18C7.5 29.9 21 29.5 21 18c1.8-1.1-.1-3.7-1.7-2.2-.6.5-.7 1.3-.1 2 .2.2.3.2.3.2.1 9.4-11 10.2-10.9 0 .9-.3 1.2-2.1-.2-2.5-.7-.2-1.7.1-1.9 1-.1.7.2 1.4.8 1.5M3.2 8.6L3.1 2S2.8.5 4.8.4h7.9c1.2.2 1.5.6 1.5 1.7l-1.4.9-.1-1.2H4.6v6.8H3.2zm8.3.1l-.7-1.4 9.4-5.5 4 6.8 1.6.1-4.7-8s-.5-.6-1.6-.1c-1.1.6-9.8 5.6-9.8 5.6-.6.8-.4 1.7.2 2.5h1.6z"/></symbol><symbol viewBox="0 0 30.7 35.9" id="first" xmlns="http://www.w3.org/2000/svg"><path class="bst0" d="M1.7 11.3l27.3-.1c-1.1 7.3-1.9 16.5-.1 23.5l-27.2-.1c1.3-8.1 1.6-15.1 0-23.3zM3 7.5V5.9s-1.1.3-1.6 1.2C1 8 .1 9.8.1 9.8 1.7 20 1.8 25.9 0 35.9l30.5.1c-1.5-9.8-1.5-16.2.1-25.9.1-.1-2-3.7-2-3.7s-.6-.5-1.1-.5h-.7l2.5 4.1H1.6S2.8 7.6 3 7.5z"/><path class="bst1" d="M8.4 18c.3 11.9 13.8 11.5 13.8 0 1.8-1.1-.1-3.7-1.7-2.2-.6.5-.7 1.3-.1 2 .2.2.3.2.3.2.1 9.4-11 10.2-10.9 0 .9-.3 1.2-2.1-.2-2.5-.7-.2-1.7.1-1.9 1-.1.7.2 1.4.7 1.5m-4-9.4L4.3 2S4 .4 6 .3h7.9c1.2.2 1.5.6 1.5 1.7l-1.4.9-.1-1.2-8.2.1v6.8H4.4zm8.3.1L12 7.3l9.4-5.5 4 6.8 1.6.1-4.7-8s-.5-.6-1.6-.1c-1.1.6-9.8 5.6-9.8 5.6-.6.8-.5 1.7.2 2.5h1.6z"/></symbol><symbol viewBox="0 0 25.4 45.8" id="logo" xmlns="http://www.w3.org/2000/svg"><path class="cst0" d="M5.5 45.8V31.3h1.6c1.9 0 2.4.5 5.5 5l6.4 9.5h6.4L18 35.2c-1.8-2.8-2.9-3.9-3.7-4.4v-.1c.6-.1 1.3-.3 1.8-.5 3.2-1.2 5.7-4 5.6-8.3-.1-3.6-2.5-6.7-6.1-7.9v-.1c2.3-1 3.9-3.2 3.9-6.2C19.6 2 15.1 0 9.4 0H0v45.8h5.5zm10.7-23.9c0 3.3-1.9 5.4-6.2 5.4H5.5V16.6h4.2c4.4 0 6.5 2.1 6.5 5.3M5.5 3.7h3.4c3.7 0 5.7 1.5 5.7 4.4 0 3.1-1.8 4.6-5.8 4.6H5.5v-9z"/></symbol><symbol viewBox="0 0 39.9 36.2" id="second" xmlns="http://www.w3.org/2000/svg"><path class="dst0" d="M4.2 29.6c.4-8.4 7.3-15.1 15.8-15.1s15.4 6.7 15.8 15.1H4.2zM19 12.4c0-.6.5-1 1-1 .6 0 1 .5 1 1 0 .2-.1.4-.2.6h-1.7c-.1-.1-.1-.4-.1-.6m3.4.8c.1-.2.1-.5.1-.8 0-1.4-1.1-2.5-2.5-2.5s-2.5 1.1-2.5 2.5c0 .3 0 .5.1.8-8.3 1.1-14.7 8.3-14.7 17v.7h34.5v-.7c-.2-8.6-6.6-15.9-15-17"/><path class="dst1" d="M6.5 28h-.1c-.4-.1-.6-.4-.5-.8 1.1-4.6 4.6-8.6 9.5-10.6.3-.1.7 0 .9.4.1.3 0 .7-.4.9-4.5 1.9-7.7 5.5-8.7 9.6-.1.3-.4.5-.7.5"/><path class="dst0" d="M3.2 34.9h33.5l1.3-1.8H1.9l1.3 1.8zm33.6 1.3H3.2c-.4 0-.8-.2-1-.5L.3 33.2c-.3-.2-.3-.6-.2-.9.1-.3.5-.5.8-.5H39c.3 0 .7.2.8.5.1.3.1.7-.1 1l-1.9 2.5c-.2.3-.6.4-1 .4"/><path class="dst1" d="M19.9 7.5c-.4 0-.7-.3-.7-.7V.7c0-.4.3-.7.7-.7.4 0 .7.3.7.6v6.2c-.1.4-.4.7-.7.7m-8 2c-.2 0-.5-.1-.6-.3L8.2 3.8c-.2-.4-.1-.8.3-.9.3-.2.7-.1.9.2l3.1 5.4c.2.3.1.7-.2.9-.2 0-.3.1-.4.1m15.9 0c-.1 0-.2 0-.3-.1-.3-.2-.4-.6-.2-.9l3.1-5.4c.2-.3.6-.4.9-.2.3.2.4.6.2.9l-3.1 5.4c-.1.1-.4.3-.6.3"/></symbol></svg>