<?xml version="1.0" encoding="utf-8"?>
<svg xmlns="http://www.w3.org/2000/svg" xmlns:xlink="http://www.w3.org/1999/xlink">
    <symbol viewBox="0 0 32 32" id="check">
        <path d="M26.664 6.27a.829.829 0 0 0-1.177 0L13.088 18.611a.826.826 0 0 1-1.178 0l-5.433-5.532a.825.825 0 0 0-1.177 0l-2.401 2.158a.83.83 0 0 0-.246.583c0 .215.087.44.247.603l5.478 5.749c.324.328.855.861 1.178 1.186l2.355 2.374a.834.834 0 0 0 1.178 0L29.019 9.83a.846.846 0 0 0 0-1.188l-2.356-2.373z"/>
    </symbol>
    <symbol viewBox="0 0 30 12" id="glasses">
        <path data-name="Forma 1" class="bcls-1"
              d="M.725 7.97h.694A5.782 5.782 0 0 0 3.066 11c1.2.86 2.589.91 4.517.99h.148s.186.01.484.01c1.578 0 3.592-.16 4.232-.91a7.547 7.547 0 0 0 1.536-3.85c0-.03.045-.63.99-.63a.815.815 0 0 1 .991.64 7.52 7.52 0 0 0 1.534 3.84c.64.75 2.654.91 4.232.91.3 0 .484-.01.485-.01h.147c1.928-.08 3.321-.13 4.517-.99a5.782 5.782 0 0 0 1.647-3.03h.75a.674.674 0 0 0 .662-.59l.056-.53a.586.586 0 0 0-.105-.39.276.276 0 0 0-.068-.28C29.147 5.55 23.187 0 21.595 0c-1.568.05-4.06 2.71-4.165 2.83a.257.257 0 0 0-.065.24l.117.49a.508.508 0 0 0 .478.44.6.6 0 0 0 .453-.24c1.338-1.5 2.475-2.43 2.967-2.43.535 0 2.986 1.96 5.169 3.86-.985-.1-2.324-.16-4.017-.16-2.489 0-5.143.12-6.5.19-.582.03-1.526.03-2.109 0-1.362-.07-4.016-.19-6.5-.19-1.593 0-2.876.05-3.837.15 2.177-1.9 4.613-3.85 5.145-3.85.492 0 1.63.93 2.967 2.43a.6.6 0 0 0 .454.24.508.508 0 0 0 .477-.44l.118-.49a.257.257 0 0 0-.065-.24c-.105-.12-2.6-2.78-4.19-2.83C6.925 0 .965 5.55.292 6.18a.292.292 0 0 0-.076.17.165.165 0 0 0-.054.04.59.59 0 0 0-.143.46l.056.53a.674.674 0 0 0 .65.59zM17.16 6.55a1.962 1.962 0 0 1 1.318-.29h.233s2.289-.02 3.805.01c.036 0 3.6.06 4.3.15a1.069 1.069 0 0 1 .747.29.555.555 0 0 1 .075.42c-.045.34-.512 3.33-2.691 3.7a14.079 14.079 0 0 1-2.4.18h-.6a14.909 14.909 0 0 1-2.4-.18c-1.968-.34-2.3-2.65-2.43-3.52l-.033-.22a.644.644 0 0 1 .076-.54zm-14.741.16a1.069 1.069 0 0 1 .747-.29c.692-.09 4.26-.15 4.3-.15.567-.01 1.243-.02 1.867-.02 1.041 0 1.936.01 1.943.01h.224a1.962 1.962 0 0 1 1.318.29.643.643 0 0 1 .083.54l-.034.22c-.127.87-.463 3.18-2.429 3.52a14.909 14.909 0 0 1-2.4.18h-.6a15.168 15.168 0 0 1-2.4-.18c-2.179-.37-2.646-3.36-2.693-3.7a.554.554 0 0 1 .074-.42z"/>
    </symbol>
    <symbol viewBox="0 0 28 30" id="hands">
        <path class="ccls-1"
              d="M26.912 20.12a2.357 2.357 0 0 0-2.273-.11l-5.118 2.48v-.27a2.274 2.274 0 0 0-2.292-2.32h-4.958a10.268 10.268 0 0 1-3.012-.47l-3.23-1v-1.31a.711.711 0 0 0-.69-.76H.816a.82.82 0 0 0-.816.76v11.99a.8.8 0 0 0 .816.74h4.523a.7.7 0 0 0 .691-.74V27.9l.539.4a7.819 7.819 0 0 0 4.868 1.7h4.356a7.67 7.67 0 0 0 4.35-1.34l6.847-4.67a2.31 2.31 0 0 0-.078-3.87zm-22.39 8.22H1.507V17.86h3.015v10.48zm21.618-5.59l-6.847 4.67a6.225 6.225 0 0 1-3.5 1.07h-4.356a6.335 6.335 0 0 1-3.924-1.36l-1.484-1.16V20l2.784.87a11.606 11.606 0 0 0 3.458.54h4.958a.764.764 0 0 1 .784.81v.91a12.864 12.864 0 0 1-5.163.34.733.733 0 0 0-.848.63.758.758 0 0 0 .632.86 12.833 12.833 0 0 0 1.923.15 15.368 15.368 0 0 0 4.511-.7l.081-.03v-.01l6.173-3.01a.78.78 0 0 1 .781.04.79.79 0 0 1 .38.68.807.807 0 0 1-.343.67zM1.151 9.9a2.26 2.26 0 0 0 2.222.12l5.068-2.48v.27a2.409 2.409 0 0 0 2.393 2.37h4.957a9.9 9.9 0 0 1 2.962.44l3.18.98v1.3a.773.773 0 0 0 .791.74h4.522a.708.708 0 0 0 .716-.74V.92a.734.734 0 0 0-.716-.77h-4.522a.8.8 0 0 0-.791.77v1.2l-.489-.41A7.69 7.69 0 0 0 16.626 0H12.27a7.686 7.686 0 0 0-4.351 1.35L1.072 6.03a2.311 2.311 0 0 0 .079 3.87zM23.44 1.66h3.015v10.48H23.44V1.66zM1.922 7.27l6.847-4.68a6.24 6.24 0 0 1 3.5-1.08h4.356a6.2 6.2 0 0 1 3.873 1.37l1.434 1.18v5.96l-2.734-.84a11.253 11.253 0 0 0-3.408-.51h-4.957a.9.9 0 0 1-.885-.86v-.92a13.67 13.67 0 0 1 5.213-.34.758.758 0 0 0 .874-.62.744.744 0 0 0-.62-.86 14.965 14.965 0 0 0-6.426.54.016.016 0 0 1 0 .01c-.016 0-.03.01-.043.01s-.029.01-.043.02L2.731 8.67a.816.816 0 0 1-1.161-.73.809.809 0 0 1 .352-.67zm12.413 5.2a2.365 2.365 0 0 0-3.553 2.04 4.135 4.135 0 0 0 1.635 2.7 15.484 15.484 0 0 0 1.48 1.23.754.754 0 0 0 .875 0 15.566 15.566 0 0 0 1.481-1.23 4.133 4.133 0 0 0 1.634-2.7 2.365 2.365 0 0 0-2.364-2.36 2.341 2.341 0 0 0-1.188.32zm2.045 2.04c0 .48-1.006 1.55-2.046 2.37-1.039-.82-2.044-1.89-2.044-2.37a.862.862 0 0 1 .857-.86.849.849 0 0 1 .632.28.743.743 0 0 0 1.112 0 .847.847 0 0 1 .632-.28.863.863 0 0 1 .857.86z"/>
    </symbol>
    <symbol viewBox="0 0 30 30" id="target">
        <path class="dcls-1"
              d="M29.965 4.836a.627.627 0 0 0-.521-.415l-2.688-.3a.625.625 0 0 0-.881-.881l-.3-2.688a.626.626 0 0 0-1.064-.373l-4.059 4.06a13.8 13.8 0 1 0 5.3 5.3l4.06-4.06a.627.627 0 0 0 .153-.643zm-8.829.491l3.342-3.342.23 2.069a17.058 17.058 0 0 0-3.718 2.74zm3.021.514a50.283 50.283 0 0 1-3.28 3.909c-1.589 1.759-3.172 3.4-3.7 3.949H16.3v-.879a170.36 170.36 0 0 1 3.945-3.7 50.564 50.564 0 0 1 3.912-3.279zm-10.849 10.85a.624.624 0 0 0 .883 0l1.742-1.742h1.334a3.748 3.748 0 1 1-2.218-2.218v1.334l-1.741 1.742a.625.625 0 0 0 0 .884zm2.4-5.041a5 5 0 1 0 2.636 2.636c.49-.508 1.324-1.381 2.259-2.391a8.123 8.123 0 1 1-2.5-2.5 163.56 163.56 0 0 0-2.391 2.255zm10.538 4.6a12.488 12.488 0 1 1-6.372-10.9l-.264 2.662-.089.079-.471.427a9.372 9.372 0 1 0 2.428 2.428c.168-.185.338-.371.506-.56l2.662-.263a12.426 12.426 0 0 1 1.604 6.126zm-1.579-7.387l-1.469.146a41.706 41.706 0 0 0 1.783-2.184 9.779 9.779 0 0 0 .851-1.295 3.49 3.49 0 0 0 .112-.238l2.065.23z"/>
    </symbol>
</svg>