<svg xmlns="http://www.w3.org/2000/svg" width="30" height="12" viewBox="0 0 30 12">
  <metadata><?xpacket begin="﻿" id="W5M0MpCehiHzreSzNTczkc9d"?>
<x:xmpmeta xmlns:x="adobe:ns:meta/" x:xmptk="Adobe XMP Core 5.6-c138 79.159824, 2016/09/14-01:09:01        ">
   <rdf:RDF xmlns:rdf="http://www.w3.org/1999/02/22-rdf-syntax-ns#">
      <rdf:Description rdf:about=""/>
   </rdf:RDF>
</x:xmpmeta>
                                                                                                    
                                                                                                    
                                                                                                    
                                                                                                    
                                                                                                    
                                                                                                    
                                                                                                    
                                                                                                    
                                                                                                    
                                                                                                    
                                                                                                    
                                                                                                    
                                                                                                    
                                                                                                    
                                                                                                    
                                                                                                    
                                                                                                    
                                                                                                    
                                                                                                    
                                                                                                    
                           
<?xpacket end="w"?></metadata>
<defs>
    <style>
      .cls-1 {
        fill: #222;
        fill-rule: evenodd;
      }
    </style>
  </defs>
  <path id="Forma_1" data-name="Forma 1" class="cls-1" d="M375.725,1057.97h0.694a5.782,5.782,0,0,0,1.647,3.03c1.2,0.86,2.589.91,4.517,0.99h0.148s0.186,0.01.484,0.01c1.578,0,3.592-.16,4.232-0.91a7.547,7.547,0,0,0,1.536-3.85c0-.03.045-0.63,0.99-0.63a0.815,0.815,0,0,1,.991.64,7.52,7.52,0,0,0,1.534,3.84c0.64,0.75,2.654.91,4.232,0.91,0.3,0,.484-0.01.485-0.01h0.147c1.928-.08,3.321-0.13,4.517-0.99a5.782,5.782,0,0,0,1.647-3.03h0.75a0.674,0.674,0,0,0,.662-0.59l0.056-.53a0.586,0.586,0,0,0-.105-0.39,0.276,0.276,0,0,0-.068-0.28c-0.674-.63-6.634-6.18-8.226-6.18-1.568.05-4.06,2.71-4.165,2.83a0.257,0.257,0,0,0-.065.24l0.117,0.49a0.508,0.508,0,0,0,.478.44,0.6,0.6,0,0,0,.453-0.24c1.338-1.5,2.475-2.43,2.967-2.43,0.535,0,2.986,1.96,5.169,3.86-0.985-.1-2.324-0.16-4.017-0.16-2.489,0-5.143.12-6.5,0.19-0.582.03-1.526,0.03-2.109,0-1.362-.07-4.016-0.19-6.5-0.19-1.593,0-2.876.05-3.837,0.15,2.177-1.9,4.613-3.85,5.145-3.85,0.492,0,1.63.93,2.967,2.43a0.6,0.6,0,0,0,.454.24,0.508,0.508,0,0,0,.477-0.44l0.118-.49a0.257,0.257,0,0,0-.065-0.24c-0.105-.12-2.6-2.78-4.19-2.83-1.567,0-7.527,5.55-8.2,6.18a0.292,0.292,0,0,0-.076.17,0.165,0.165,0,0,0-.054.04,0.59,0.59,0,0,0-.143.46l0.056,0.53A0.674,0.674,0,0,0,375.725,1057.97Zm16.435-1.42a1.962,1.962,0,0,1,1.318-.29h0.233s2.289-.02,3.805.01c0.036,0,3.6.06,4.3,0.15a1.069,1.069,0,0,1,.747.29,0.555,0.555,0,0,1,.075.42c-0.045.34-.512,3.33-2.691,3.7a14.079,14.079,0,0,1-2.4.18h-0.6a14.909,14.909,0,0,1-2.4-.18c-1.968-.34-2.3-2.65-2.43-3.52-0.012-.08-0.023-0.16-0.033-0.22A0.644,0.644,0,0,1,392.16,1056.55Zm-14.741.16a1.069,1.069,0,0,1,.747-0.29c0.692-.09,4.26-0.15,4.3-0.15,0.567-.01,1.243-0.02,1.867-0.02,1.041,0,1.936.01,1.943,0.01H386.5a1.962,1.962,0,0,1,1.318.29,0.643,0.643,0,0,1,.083.54c-0.01.06-.021,0.14-0.034,0.22-0.127.87-.463,3.18-2.429,3.52a14.909,14.909,0,0,1-2.4.18h-0.6a15.168,15.168,0,0,1-2.4-.18c-2.179-.37-2.646-3.36-2.693-3.7A0.554,0.554,0,0,1,377.419,1056.71Z" transform="translate(-375 -1050)"/>
</svg>
