<svg xmlns="http://www.w3.org/2000/svg" width="28" height="30" viewBox="0 0 28 30">
  <metadata><?xpacket begin="﻿" id="W5M0MpCehiHzreSzNTczkc9d"?>
<x:xmpmeta xmlns:x="adobe:ns:meta/" x:xmptk="Adobe XMP Core 5.6-c138 79.159824, 2016/09/14-01:09:01        ">
   <rdf:RDF xmlns:rdf="http://www.w3.org/1999/02/22-rdf-syntax-ns#">
      <rdf:Description rdf:about=""/>
   </rdf:RDF>
</x:xmpmeta>
                                                                                                    
                                                                                                    
                                                                                                    
                                                                                                    
                                                                                                    
                                                                                                    
                                                                                                    
                                                                                                    
                                                                                                    
                                                                                                    
                                                                                                    
                                                                                                    
                                                                                                    
                                                                                                    
                                                                                                    
                                                                                                    
                                                                                                    
                                                                                                    
                                                                                                    
                                                                                                    
                           
<?xpacket end="w"?></metadata>
<defs>
    <style>
      .cls-1 {
        fill: #222;
        fill-rule: evenodd;
      }
    </style>
  </defs>
  <path class="cls-1" d="M401.912,1134.12a2.357,2.357,0,0,0-2.273-.11l-5.118,2.48v-0.27a2.274,2.274,0,0,0-2.292-2.32h-4.958a10.268,10.268,0,0,1-3.012-.47l-3.23-1v-1.31a0.711,0.711,0,0,0-.69-0.76h-4.523a0.82,0.82,0,0,0-.816.76v11.99a0.8,0.8,0,0,0,.816.74h4.523a0.7,0.7,0,0,0,.691-0.74v-1.21l0.539,0.4a7.819,7.819,0,0,0,4.868,1.7h4.356a7.67,7.67,0,0,0,4.35-1.34l6.847-4.67A2.31,2.31,0,0,0,401.912,1134.12Zm-22.39,8.22h-3.015v-10.48h3.015v10.48Zm21.618-5.59-6.847,4.67a6.225,6.225,0,0,1-3.5,1.07h-4.356a6.335,6.335,0,0,1-3.924-1.36l-1.484-1.16V1134l2.784,0.87a11.606,11.606,0,0,0,3.458.54h4.958a0.764,0.764,0,0,1,.784.81v0.91a12.864,12.864,0,0,1-5.163.34,0.733,0.733,0,0,0-.848.63,0.758,0.758,0,0,0,.632.86,12.833,12.833,0,0,0,1.923.15,15.368,15.368,0,0,0,4.511-.7h0l0.081-.03c0-.01,0-0.01,0-0.01l6.173-3.01a0.78,0.78,0,0,1,.781.04,0.79,0.79,0,0,1,.38.68A0.807,0.807,0,0,1,401.14,1136.75Zm-24.989-12.85a2.26,2.26,0,0,0,2.222.12l5.068-2.48v0.27a2.409,2.409,0,0,0,2.393,2.37h4.957a9.9,9.9,0,0,1,2.962.44l3.18,0.98v1.3a0.773,0.773,0,0,0,.791.74h4.522a0.708,0.708,0,0,0,.716-0.74v-11.98a0.734,0.734,0,0,0-.716-0.77h-4.522a0.8,0.8,0,0,0-.791.77v1.2l-0.489-.41a7.69,7.69,0,0,0-4.818-1.71H387.27a7.686,7.686,0,0,0-4.351,1.35l-6.847,4.68A2.311,2.311,0,0,0,376.151,1123.9Zm22.289-8.24h3.015v10.48H398.44v-10.48Zm-21.518,5.61,6.847-4.68a6.24,6.24,0,0,1,3.5-1.08h4.356a6.2,6.2,0,0,1,3.873,1.37l1.434,1.18v5.96l-2.734-.84a11.253,11.253,0,0,0-3.408-.51h-4.957a0.9,0.9,0,0,1-.885-0.86v-0.92a13.67,13.67,0,0,1,5.213-.34,0.758,0.758,0,0,0,.874-0.62,0.744,0.744,0,0,0-.62-0.86,14.965,14.965,0,0,0-6.426.54,0.016,0.016,0,0,1,0,.01h0c-0.016,0-.03.01-0.043,0.01s-0.029.01-.043,0.02l-6.172,3.02a0.816,0.816,0,0,1-1.161-.73A0.809,0.809,0,0,1,376.922,1121.27Zm12.413,5.2a2.365,2.365,0,0,0-3.553,2.04,4.135,4.135,0,0,0,1.635,2.7,15.484,15.484,0,0,0,1.48,1.23,0.754,0.754,0,0,0,.875,0,15.566,15.566,0,0,0,1.481-1.23,4.133,4.133,0,0,0,1.634-2.7,2.365,2.365,0,0,0-2.364-2.36A2.341,2.341,0,0,0,389.335,1126.47Zm2.045,2.04c0,0.48-1.006,1.55-2.046,2.37-1.039-.82-2.044-1.89-2.044-2.37a0.862,0.862,0,0,1,.857-0.86,0.849,0.849,0,0,1,.632.28,0.743,0.743,0,0,0,1.112,0,0.847,0.847,0,0,1,.632-0.28A0.863,0.863,0,0,1,391.38,1128.51Z" transform="translate(-375 -1114)"/>
</svg>
