<svg xmlns="http://www.w3.org/2000/svg" width="30" height="30" viewBox="0 0 30 30">
    <metadata><?xpacket begin="﻿" id="W5M0MpCehiHzreSzNTczkc9d"?>
        <x:xmpmeta xmlns:x="adobe:ns:meta/" x:xmptk="Adobe XMP Core 5.6-c138 79.159824, 2016/09/14-01:09:01        ">
            <rdf:RDF xmlns:rdf="http://www.w3.org/1999/02/22-rdf-syntax-ns#">
                <rdf:Description rdf:about=""/>
            </rdf:RDF>
        </x:xmpmeta>


        <?xpacket end="w"?>
    </metadata>
    <defs>
        <style>
            .cls-1 {
            fill: #e24619;
            fill-rule: evenodd;
            }
        </style>
    </defs>
    <path class="cls-1"
          d="M404.965,975.836a0.627,0.627,0,0,0-.521-0.415l-2.688-.3a0.625,0.625,0,0,0-.881-0.881l-0.3-2.688a0.626,0.626,0,0,0-1.064-.373l-4.059,4.06a13.8,13.8,0,1,0,5.3,5.3l4.06-4.06A0.627,0.627,0,0,0,404.965,975.836Zm-8.829.491,3.342-3.342,0.23,2.069a17.058,17.058,0,0,0-3.718,2.74Zm3.021,0.514a50.283,50.283,0,0,1-3.28,3.909c-1.589,1.759-3.172,3.4-3.7,3.949H391.3V983.82c0.543-.526,2.187-2.109,3.945-3.7A50.564,50.564,0,0,1,399.157,976.841Zm-10.849,10.85a0.624,0.624,0,0,0,.883,0l1.742-1.742h1.334a3.748,3.748,0,1,1-2.218-2.218v1.334l-1.741,1.742A0.625,0.625,0,0,0,388.308,987.691Zm2.4-5.041a5,5,0,1,0,2.636,2.636c0.49-.508,1.324-1.381,2.259-2.391a8.123,8.123,0,1,1-2.5-2.5C392.094,981.327,391.221,982.16,390.712,982.65Zm10.538,4.6a12.488,12.488,0,1,1-6.372-10.9l-0.264,2.662-0.089.079-0.471.427a9.372,9.372,0,1,0,2.428,2.428c0.168-.185.338-0.371,0.506-0.56l2.662-.263A12.426,12.426,0,0,1,401.25,987.249Zm-1.579-7.387-1.469.146c0.738-.855,1.336-1.586,1.783-2.184a9.779,9.779,0,0,0,.851-1.295c0.028-.055.07-0.138,0.112-0.238l2.065,0.23Z"
          transform="translate(-375 -971)"/>
</svg>
